<?xml version="1.0" standalone="no"?><svg xmlns="http://www.w3.org/2000/svg" viewBox="0 0 1440 320"><path fill="#a2d9ff" fill-opacity="1" d="M0,160L16,170.7C32,181,64,203,96,181.3C128,160,160,96,192,106.7C224,117,256,203,288,229.3C320,256,352,224,384,224C416,224,448,256,480,256C512,256,544,224,576,218.7C608,213,640,235,672,229.3C704,224,736,192,768,181.3C800,171,832,181,864,202.7C896,224,928,256,960,256C992,256,1024,224,1056,192C1088,160,1120,128,1152,133.3C1184,139,1216,181,1248,213.3C1280,245,1312,267,1344,277.3C1376,288,1408,288,1424,288L1440,288L1440,320L1424,320C1408,320,1376,320,1344,320C1312,320,1280,320,1248,320C1216,320,1184,320,1152,320C1120,320,1088,320,1056,320C1024,320,992,320,960,320C928,320,896,320,864,320C832,320,800,320,768,320C736,320,704,320,672,320C640,320,608,320,576,320C544,320,512,320,480,320C448,320,416,320,384,320C352,320,320,320,288,320C256,320,224,320,192,320C160,320,128,320,96,320C64,320,32,320,16,320L0,320Z"></path></svg>